# xmcd
#
# Track frame offsets:
#	150
#	18702
#	49842
#	80092
#	104450
#
# Disc length: 1711 seconds
# Revision: 0
# Processed by: cddbd v1.5.2PL0 Copyright (c) Steve Scherf et al.
# Submitted via: dBpowerAMP V12.0
#
DISCID=3e06ad05
DTITLE=Juliet Roberts - Another Place Another Day Another Time
DYEAR=1992
DGENRE=House
TTITLE0=Another Place Another Day Another Time [Orginal Edit]
TTITLE1=Another Place Another Day Another Time [Tony Humphries '92 Remix]
TTITLE2=Another Place Another Day Another Time [Hip Hop Mix]
TTITLE3=Another Place Another Day Another Time [Forget Me Dub]
TTITLE4=Another Place Another Day Another Time [Acappella]
EXTD=
EXTT0=
EXTT1=
EXTT2=
EXTT3=
EXTT4=
PLAYORDER=
